<svg xmlns="http://www.w3.org/2000/svg" viewBox="0 0 260 220" role="img" aria-labelledby="title">
  <title id="title">Pelotonia</title>
  <rect width="260" height="220" rx="25" fill="#0E2D24"/>
  <g transform="translate(73 16) scale(1.13)">
    <path fill="#F6F4EC" fill-rule="evenodd" d="M22 12h37c20 0 32 11 32 28S79 68 59 68H43v20H22V12Zm21 20v17h16c8 0 12-3 12-9s-4-8-12-8H43Z"/>
    <path fill="#4FB28A" d="M17 88c3-18 14-33 30-43 8-5 17-8 25-9l6 7c-14 5-23 11-29 19-7 9-10 17-11 26H17Z"/>
    <path d="M31 81c5-16 17-28 33-37" fill="none" stroke="#F6F4EC" stroke-width="2.4" stroke-linecap="round" stroke-dasharray="5 6"/>
  </g>
  <text x="130" y="174" fill="#F6F4EC" text-anchor="middle" font-family="Arial, Helvetica, sans-serif" font-size="25" font-weight="700" letter-spacing="2.4">PELOTONIA</text>
</svg>
